<?xml version="1.0" standalone="no"?><!DOCTYPE svg PUBLIC "-//W3C//DTD SVG 1.1//EN" "http://www.w3.org/Graphics/SVG/1.1/DTD/svg11.dtd"><svg t="1581808774300" class="icon" viewBox="0 0 1024 1024" version="1.1" xmlns="http://www.w3.org/2000/svg" p-id="4714" xmlns:xlink="http://www.w3.org/1999/xlink" width="100" height="100"><defs><style type="text/css"></style></defs><path d="M268.382468 1024c-62.968129 0-125.936258-24.060992-173.546307-71.671041l-23.03712-23.03712c-95.732033-95.732033-95.732033-251.36058 0-347.092614L582.199241 71.799025c95.732033-95.732033 251.36058-95.732033 347.092614 0l23.03712 23.03712c95.732033 95.732033 95.732033 251.36058 0 347.092614L441.928775 952.328959c-47.610049 47.610049-110.578178 71.671041-173.546307 71.671041z m-128.495938-117.233346c70.647169 70.647169 185.832771 70.647169 256.47994 0L906.254734 396.87839c70.647169-70.647169 70.647169-185.832771 0-256.47994l-23.03712-23.03712c-70.647169-70.647169-185.832771-70.647169-256.47994 0l-509.888264 509.888264C46.202241 697.896763 46.202241 813.082365 116.84941 883.729534l23.03712 23.03712z" fill="#000000" p-id="4715"></path><path d="M700.456459 680.490939c-11.774528 0-23.03712-6.143232-28.668417-17.405825-0.511936-1.023872-50.169729-96.755906-132.07949-178.665666S362.066758 352.851894 361.042886 352.339958c-15.870016-8.190976-22.013248-27.132608-13.822273-43.002625 8.190976-15.870016 27.132608-22.013248 43.002625-13.822272 4.095488 2.047744 105.458818 54.777153 195.047619 143.854018 89.076865 89.076865 141.806274 190.440195 143.854018 195.047619 8.190976 15.870016 2.047744 34.811649-13.822272 43.002625-5.11936 2.047744-10.23872 3.071616-14.846144 3.071616zM578.615689 334.422197c-8.190976 0-16.381952-3.071616-22.525184-9.214848-12.286464-12.286464-12.286464-32.763905 0-45.050369l73.206849-73.206849c12.286464-12.286464 32.763905-12.286464 45.050369 0 12.286464 12.286464 12.286464 32.763905 0 45.050369l-73.20685 73.206849c-6.143232 6.143232-14.334208 9.214848-22.525184 9.214848z" fill="#000000" p-id="4716"></path><path d="M723.493579 157.292338m-32.251968 0a32.251969 32.251969 0 1 0 64.503937 0 32.251969 32.251969 0 1 0-64.503937 0Z" fill="#000000" p-id="4717"></path></svg>