<?xml version="1.0" standalone="no"?><!DOCTYPE svg PUBLIC "-//W3C//DTD SVG 1.1//EN" "http://www.w3.org/Graphics/SVG/1.1/DTD/svg11.dtd"><svg t="1581818671685" class="icon" viewBox="0 0 1024 1024" version="1.1" xmlns="http://www.w3.org/2000/svg" p-id="2102" xmlns:xlink="http://www.w3.org/1999/xlink" width="100" height="100"><defs><style type="text/css"></style></defs><path d="M699.733333 921.6c-3.413333 0-6.826667 0-10.24-3.413333-126.293333-102.4-259.413333-221.866667-296.96-354.986667-13.653333-54.613333 17.066667-112.64 68.266667-126.293333 27.306667-6.826667 54.613333-3.413333 75.093333 6.826666 23.893333 13.653333 40.96 34.133333 47.786667 61.44 17.066667 58.026667 95.573333 146.773333 225.28 249.173334 6.826667 6.826667 6.826667 17.066667 3.413333 23.893333-6.826667 6.826667-17.066667 6.826667-23.893333 3.413333-95.573333-75.093333-211.626667-184.32-235.52-266.24-3.413333-17.066667-17.066667-34.133333-34.133333-40.96-17.066667-10.24-34.133333-10.24-51.2-6.826666-34.133333 10.24-58.026667 47.786667-47.786667 85.333333 34.133333 122.88 163.84 242.346667 283.306667 337.92 6.826667 6.826667 6.826667 17.066667 3.413333 23.893333 3.413333 3.413333-3.413333 6.826667-6.826667 6.826667z" fill="#E94343" p-id="2103"></path><path d="M153.6 819.2c-6.826667 0-13.653333-3.413333-17.066667-10.24-3.413333-10.24 3.413333-17.066667 10.24-20.48 40.96-13.653333 112.64-68.266667 81.92-177.493333-20.48-68.266667-10.24-139.946667 23.893334-208.213334 34.133333-64.853333 92.16-112.64 160.426666-133.12 139.946667-40.96 286.72 40.96 331.093334 180.906667 10.24 10.24 75.093333 64.853333 133.12 112.64 6.826667 6.826667 6.826667 17.066667 3.413333 23.893333-6.826667 6.826667-17.066667 6.826667-23.893333 3.413334-133.12-112.64-139.946667-119.466667-139.946667-122.88v-3.413334c-37.546667-126.293333-167.253333-197.973333-290.133333-160.426666-61.44 17.066667-109.226667 58.026667-139.946667 116.053333-30.72 58.026667-37.546667 119.466667-20.48 180.906667 34.133333 116.053333-30.72 194.56-105.813333 218.453333h-6.826667z" fill="#E94343" p-id="2104"></path><path d="M221.866667 904.533333c-6.826667 0-13.653333-3.413333-17.066667-10.24-3.413333-10.24 3.413333-17.066667 10.24-20.48 92.16-27.306667 139.946667-85.333333 95.573333-286.72-23.893333-105.813333 30.72-204.8 126.293334-232.106666 47.786667-13.653333 95.573333-6.826667 139.946666 17.066666 44.373333 23.893333 75.093333 64.853333 88.746667 112.64 6.826667 20.48 17.066667 58.026667 177.493333 187.733334 6.826667 6.826667 6.826667 17.066667 3.413334 23.893333-6.826667 6.826667-17.066667 6.826667-23.893334 3.413333-157.013333-126.293333-180.906667-170.666667-187.733333-204.8-10.24-40.96-37.546667-75.093333-75.093333-92.16-34.133333-20.48-75.093333-23.893333-112.64-13.653333-78.506667 23.893333-122.88 105.813333-102.4 194.56 40.96 191.146667 6.826667 286.72-119.466667 327.68 0-6.826667 0-6.826667-3.413333-6.826667z" fill="#E94343" p-id="2105"></path><path d="M768 853.333333c-3.413333 0-10.24-3.413333-13.653333-6.826666-6.826667-6.826667-23.893333-20.48-44.373334-37.546667-75.093333-58.026667-204.8-157.013333-235.52-273.066667-3.413333-10.24 3.413333-17.066667 10.24-20.48 10.24-3.413333 17.066667 3.413333 20.48 10.24 30.72 105.813333 150.186667 197.973333 225.28 256 20.48 17.066667 40.96 30.72 47.786667 40.96 6.826667 6.826667 6.826667 17.066667 0 23.893334 0 6.826667-6.826667 6.826667-10.24 6.826666zM460.8 1024c-10.24 0-17.066667-6.826667-17.066667-17.066667s-3.413333-102.4 34.133334-139.946666c10.24-10.24 20.48-17.066667 34.133333-17.066667 51.2 0 88.746667 51.2 116.053333 85.333333 6.826667 10.24 13.653333 17.066667 17.066667 20.48 6.826667 6.826667 6.826667 17.066667 0 23.893334-6.826667 6.826667-17.066667 6.826667-23.893333 0-6.826667-6.826667-13.653333-13.653333-20.48-23.893334-23.893333-23.893333-54.613333-68.266667-88.746667-68.266666-3.413333 0-6.826667 0-10.24 6.826666-20.48 20.48-23.893333 78.506667-23.893333 112.64 0 10.24-6.826667 17.066667-17.066667 17.066667zM307.2 989.866667c-6.826667 0-13.653333-3.413333-17.066667-10.24-3.413333-10.24 3.413333-17.066667 10.24-20.48 58.026667-20.48 92.16-160.426667 75.093334-218.453334-3.413333-10.24 3.413333-17.066667 10.24-20.48 10.24-3.413333 17.066667 3.413333 20.48 10.24 23.893333 71.68-17.066667 235.52-95.573334 259.413334H307.2z" fill="#E94343" p-id="2106"></path><path d="M153.6 549.546667c-10.24 0-17.066667-6.826667-17.066667-17.066667C136.533333 331.093333 296.96 170.666667 491.52 170.666667c191.146667 0 262.826667 109.226667 310.613333 191.146666 23.893333 37.546667 44.373333 71.68 71.68 81.92 10.24 3.413333 13.653333 13.653333 10.24 20.48-3.413333 10.24-13.653333 13.653333-20.48 10.24-40.96-13.653333-64.853333-51.2-92.16-95.573333C723.626667 303.786667 665.6 204.8 491.52 204.8 314.026667 204.8 170.666667 351.573333 170.666667 532.48c0 10.24-6.826667 17.066667-17.066667 17.066667zM170.666667 699.733333c-6.826667 0-10.24-3.413333-13.653334-10.24-3.413333-3.413333-20.48-34.133333-20.48-58.026666 0-10.24 6.826667-17.066667 17.066667-17.066667s17.066667 6.826667 17.066667 17.066667c0 13.653333 10.24 37.546667 13.653333 44.373333 3.413333 6.826667 3.413333 17.066667-6.826667 23.893333H170.666667z" fill="#E94343" p-id="2107"></path><path d="M785.066667 232.106667c-6.826667 0-10.24-3.413333-13.653334-6.826667-20.48-34.133333-136.533333-119.466667-300.373333-119.466667-170.666667 0-262.826667 88.746667-279.893333 119.466667-6.826667 6.826667-17.066667 10.24-27.306667 3.413333-6.826667-3.413333-10.24-13.653333-3.413333-23.893333 23.893333-37.546667 122.88-136.533333 310.613333-136.533333 177.493333 0 303.786667 88.746667 331.093333 136.533333 3.413333 6.826667 3.413333 17.066667-6.826666 23.893333-3.413333 3.413333-6.826667 3.413333-10.24 3.413334z" fill="#E94343" p-id="2108"></path><path d="M703.146667 78.506667h-6.826667c-6.826667-3.413333-17.066667-6.826667-23.893333-10.24-44.373333-17.066667-85.333333-34.133333-201.386667-34.133334-102.4 0-126.293333 13.653333-157.013333 27.306667-10.24 6.826667-17.066667 10.24-27.306667 13.653333-6.826667 3.413333-17.066667 0-20.48-6.826666-6.826667-10.24-3.413333-20.48 6.826667-23.893334 10.24-3.413333 17.066667-6.826667 23.893333-10.24 34.133333-17.066667 61.44-34.133333 174.08-34.133333 119.466667 0 167.253333 17.066667 215.04 34.133333 6.826667 3.413333 17.066667 6.826667 23.893333 10.24 6.826667 3.413333 10.24 13.653333 6.826667 20.48 0 6.826667-6.826667 13.653333-13.653333 13.653334z" fill="#E94343" p-id="2109"></path><path d="M870.4 375.466667c-6.826667 0-13.653333-3.413333-17.066667-13.653334-10.24-30.72-40.96-78.506667-40.96-78.506666-3.413333-6.826667-3.413333-17.066667 6.826667-23.893334 6.826667-3.413333 17.066667-3.413333 23.893333 6.826667 0 3.413333 34.133333 51.2 44.373334 88.746667 3.413333 10.24-3.413333 17.066667-10.24 20.48h-6.826667z" fill="#E94343" p-id="2110"></path></svg>