<?xml version="1.0" standalone="no"?><!DOCTYPE svg PUBLIC "-//W3C//DTD SVG 1.1//EN" "http://www.w3.org/Graphics/SVG/1.1/DTD/svg11.dtd"><svg t="1581808735899" class="icon" viewBox="0 0 1024 1024" version="1.1" xmlns="http://www.w3.org/2000/svg" p-id="4031" xmlns:xlink="http://www.w3.org/1999/xlink" width="100" height="100"><defs><style type="text/css"></style></defs><path d="M976.896 933.248L835.072 791.424C983.04 614.016 973.696 347.52 807.808 181.76c-85.504-85.504-199.168-132.608-320-132.608S253.312 96.256 167.808 181.76C82.304 267.264 35.2 380.928 35.2 501.76c0 120.96 47.104 234.624 132.608 320.128C254.72 908.928 369.664 954.88 487.168 954.88c59.776 0 120.32-11.904 178.048-36.48 20.736-8.832 30.464-32.768 21.632-53.376-8.832-20.736-32.64-30.464-53.376-21.632-140.16 59.648-300.16 28.544-407.808-79.104-70.144-70.144-108.8-163.2-108.8-262.4 0-99.072 38.656-192.256 108.8-262.4s163.2-108.8 262.4-108.8 192.128 38.656 262.272 108.8c142.592 142.592 144.256 376.32 3.84 520.832-0.64 0.768-0.896 1.536-1.536 2.304-0.768 0.64-1.664 0.896-2.304 1.664a40.71424 40.71424 0 0 0 0 57.728l168.96 168.96c7.936 7.936 18.432 11.904 28.8 11.904 10.496 0 20.864-3.968 28.8-11.904 15.872-16 15.872-41.856 0-57.728z m0 0" p-id="4032" fill="#000000"></path></svg>